<svg version="1.1" viewBox="0.0 0.0 718.0 572.0" fill="none" stroke="none" stroke-linecap="square" stroke-miterlimit="10" xmlns:xlink="http://www.w3.org/1999/xlink" xmlns="http://www.w3.org/2000/svg"><clipPath id="p.0"><path d="m0 0l718.0 0l0 572.0l-718.0 0l0 -572.0z" clip-rule="nonzero"/></clipPath><g clip-path="url(#p.0)"><path fill="#000000" fill-opacity="0.0" d="m0 0l718.0 0l0 572.0l-718.0 0z" fill-rule="evenodd"/><path fill="#e63946" d="m464.19028 304.47507l20.32779 -4.334503l4.365143 -20.18518l4.3651123 20.18518l20.32779 4.334503l-20.32779 4.334503l-4.3651123 20.18518l-4.365143 -20.18518z" fill-rule="evenodd"/><path stroke="#e63946" stroke-width="1.0" stroke-linejoin="round" stroke-linecap="butt" d="m464.19028 304.47507l20.32779 -4.334503l4.365143 -20.18518l4.3651123 20.18518l20.32779 4.334503l-20.32779 4.334503l-4.3651123 20.18518l-4.365143 -20.18518z" fill-rule="evenodd"/><path fill="#e63946" d="m454.56824 262.22308l12.1085205 -3.1346436l2.6001587 -14.597626l2.6001282 14.597626l12.1085205 3.1346436l-12.1085205 3.134674l-2.6001282 14.597626l-2.6001587 -14.597626z" fill-rule="evenodd"/><path stroke="#e63946" stroke-width="1.0" stroke-linejoin="round" stroke-linecap="butt" d="m454.56824 262.22308l12.1085205 -3.1346436l2.6001587 -14.597626l2.6001282 14.597626l12.1085205 3.1346436l-12.1085205 3.134674l-2.6001282 14.597626l-2.6001587 -14.597626z" fill-rule="evenodd"/><path fill="#e63946" d="m420.54724 285.2546l20.32779 -4.3345337l4.3651123 -20.18518l4.365143 20.18518l20.32779 4.3345337l-20.32779 4.334503l-4.365143 20.18518l-4.3651123 -20.18518z" fill-rule="evenodd"/><path stroke="#e63946" stroke-width="1.0" stroke-linejoin="round" stroke-linecap="butt" d="m420.54724 285.2546l20.32779 -4.3345337l4.3651123 -20.18518l4.365143 20.18518l20.32779 4.3345337l-20.32779 4.334503l-4.365143 20.18518l-4.3651123 -20.18518z" fill-rule="evenodd"/><path fill="#e63946" d="m264.8176 335.79004l0 0c-35.08531 0 -63.527573 -22.625488 -63.527573 -50.53543c0 -27.909973 28.44226 -50.535446 63.527573 -50.535446l0 0c-21.94522 10.866135 -35.286392 29.972702 -35.286392 50.535446c0 20.562714 13.341171 39.66928 35.286392 50.53543z" fill-rule="evenodd"/><path stroke="#e63946" stroke-width="1.0" stroke-linejoin="round" stroke-linecap="butt" d="m264.8176 335.79004l0 0c-35.08531 0 -63.527573 -22.625488 -63.527573 -50.53543c0 -27.909973 28.44226 -50.535446 63.527573 -50.535446l0 0c-21.94522 10.866135 -35.286392 29.972702 -35.286392 50.535446c0 20.562714 13.341171 39.66928 35.286392 50.53543z" fill-rule="evenodd"/><path fill="#e63946" d="m391.26904 235.5853l0 99.33859l-70.04727 0l0 -99.33859z" fill-rule="evenodd"/><path stroke="#e63946" stroke-width="1.0" stroke-linejoin="round" stroke-linecap="butt" d="m391.26904 235.5853l0 99.33859l-70.04727 0l0 -99.33859z" fill-rule="evenodd"/><path fill="#e63946" d="m366.50525 285.2546l0 0c0 -56.75923 46.01245 -102.77167 102.77167 -102.77167l0 0c27.256714 0 53.397095 10.827698 72.67053 30.10112c19.273438 19.273422 30.101135 45.413803 30.101135 72.67055l0 0c0 56.759216 -46.01245 102.77164 -102.77167 102.77164l0 0c-56.759216 0 -102.77167 -46.01242 -102.77167 -102.77164zm44.724182 0l0 0c0 32.058716 25.988739 58.047485 58.047485 58.047485c32.058716 0 58.047485 -25.98877 58.047485 -58.047485c0 -32.05876 -25.98877 -58.0475 -58.047485 -58.0475l0 0c-32.058746 0 -58.047485 25.988739 -58.047485 58.0475z" fill-rule="evenodd"/><path stroke="#e63946" stroke-width="1.0" stroke-linejoin="round" stroke-linecap="butt" d="m366.50525 285.2546l0 0c0 -56.75923 46.01245 -102.77167 102.77167 -102.77167l0 0c27.256714 0 53.397095 10.827698 72.67053 30.10112c19.273438 19.273422 30.101135 45.413803 30.101135 72.67055l0 0c0 56.759216 -46.01245 102.77164 -102.77167 102.77164l0 0c-56.759216 0 -102.77167 -46.01242 -102.77167 -102.77164zm44.724182 0l0 0c0 32.058716 25.988739 58.047485 58.047485 58.047485c32.058716 0 58.047485 -25.98877 58.047485 -58.047485c0 -32.05876 -25.98877 -58.0475 -58.047485 -58.0475l0 0c-32.058746 0 -58.047485 25.988739 -58.047485 58.0475z" fill-rule="evenodd"/><path fill="#e63946" d="m563.4719 270.31497l69.98932 0l0 0c9.168823 0 16.601562 7.454773 16.601562 16.650696c0 9.195923 -7.4327393 16.650696 -16.601562 16.650696l-69.98932 0l0 0c-9.168762 0 -16.601562 -7.454773 -16.601562 -16.650696c0 -9.195923 7.4328003 -16.650696 16.601562 -16.650696z" fill-rule="evenodd"/><path stroke="#e63946" stroke-width="1.0" stroke-linejoin="round" stroke-linecap="butt" d="m563.4719 270.31497l69.98932 0l0 0c9.168823 0 16.601562 7.454773 16.601562 16.650696c0 9.195923 -7.4327393 16.650696 -16.601562 16.650696l-69.98932 0l0 0c-9.168762 0 -16.601562 -7.454773 -16.601562 -16.650696c0 -9.195923 7.4328003 -16.650696 16.601562 -16.650696z" fill-rule="evenodd"/><path fill="#e63946" d="m588.65045 226.39896l69.98932 0l0 0c9.168762 0 16.601562 7.454773 16.601562 16.650696c0 9.195938 -7.4328003 16.650726 -16.601562 16.650726l-69.98932 0l0 0c-9.168823 0 -16.601562 -7.454788 -16.601562 -16.650726c0 -9.195923 7.4327393 -16.650696 16.601562 -16.650696z" fill-rule="evenodd"/><path stroke="#e63946" stroke-width="1.0" stroke-linejoin="round" stroke-linecap="butt" d="m588.65045 226.39896l69.98932 0l0 0c9.168762 0 16.601562 7.454773 16.601562 16.650696c0 9.195938 -7.4328003 16.650726 -16.601562 16.650726l-69.98932 0l0 0c-9.168823 0 -16.601562 -7.454788 -16.601562 -16.650726c0 -9.195923 7.4327393 -16.650696 16.601562 -16.650696z" fill-rule="evenodd"/><path fill="#e63946" d="m622.0336 182.48294l69.98932 0l0 0c9.168762 0 16.601562 7.454773 16.601562 16.650711c0 9.195923 -7.4328003 16.650711 -16.601562 16.650711l-69.98932 0l0 0c-9.168762 0 -16.601562 -7.454788 -16.601562 -16.650711c0 -9.195938 7.4328003 -16.650711 16.601562 -16.650711z" fill-rule="evenodd"/><path stroke="#e63946" stroke-width="1.0" stroke-linejoin="round" stroke-linecap="butt" d="m622.0336 182.48294l69.98932 0l0 0c9.168762 0 16.601562 7.454773 16.601562 16.650711c0 9.195923 -7.4328003 16.650711 -16.601562 16.650711l-69.98932 0l0 0c-9.168762 0 -16.601562 -7.454788 -16.601562 -16.650711c0 -9.195938 7.4328003 -16.650711 16.601562 -16.650711z" fill-rule="evenodd"/><path fill="#e63946" d="m648.1352 215.78477l-175.90555 0l0 -33.291336l175.90555 0z" fill-rule="evenodd"/><path stroke="#e63946" stroke-width="1.0" stroke-linejoin="round" stroke-linecap="butt" d="m648.1352 215.78477l-175.90555 0l0 -33.291336l175.90555 0z" fill-rule="evenodd"/><path fill="#e63946" d="m624.95667 259.69553l-92.25195 0l0 -33.29132l92.25195 0z" fill-rule="evenodd"/><path stroke="#e63946" stroke-width="1.0" stroke-linejoin="round" stroke-linecap="butt" d="m624.95667 259.69553l-92.25195 0l0 -33.29132l92.25195 0z" fill-rule="evenodd"/><path fill="#e63946" d="m351.4933 286.74277l0 0c0 -56.7592 -46.01245 -102.77164 -102.77167 -102.77164l0 0c-27.25673 0 -53.39711 10.827698 -72.67053 30.10112c-19.273422 19.273422 -30.10112 45.413803 -30.10112 72.67052l0 0c0 56.759247 46.012436 102.77167 102.77165 102.77167l0 0c56.759216 0 102.77167 -46.01242 102.77167 -102.77167zm-44.724182 0l0 0c0 32.058746 -25.988739 58.047485 -58.047485 58.047485c-32.05873 0 -58.047485 -25.988739 -58.047485 -58.047485c0 -32.05873 25.988754 -58.04747 58.047485 -58.04747l0 0c32.058746 0 58.047485 25.988739 58.047485 58.04747z" fill-rule="evenodd"/><path stroke="#e63946" stroke-width="1.0" stroke-linejoin="round" stroke-linecap="butt" d="m351.4933 286.74277l0 0c0 -56.7592 -46.01245 -102.77164 -102.77167 -102.77164l0 0c-27.25673 0 -53.39711 10.827698 -72.67053 30.10112c-19.273422 19.273422 -30.10112 45.413803 -30.10112 72.67052l0 0c0 56.759247 46.012436 102.77167 102.77165 102.77167l0 0c56.759216 0 102.77167 -46.01242 102.77167 -102.77167zm-44.724182 0l0 0c0 32.058746 -25.988739 58.047485 -58.047485 58.047485c-32.05873 0 -58.047485 -25.988739 -58.047485 -58.047485c0 -32.05873 25.988754 -58.04747 58.047485 -58.04747l0 0c32.058746 0 58.047485 25.988739 58.047485 58.04747z" fill-rule="evenodd"/><path fill="#e63946" d="m154.52658 271.80316l-69.98933 0l0 0c-9.168785 0 -16.601562 7.454773 -16.601562 16.650696c0 9.195923 7.4327774 16.650696 16.601562 16.650696l69.98933 0l0 0c9.168777 0 16.601562 -7.454773 16.601562 -16.650696c0 -9.195923 -7.432785 -16.650696 -16.601562 -16.650696z" fill-rule="evenodd"/><path stroke="#e63946" stroke-width="1.0" stroke-linejoin="round" stroke-linecap="butt" d="m154.52658 271.80316l-69.98933 0l0 0c-9.168785 0 -16.601562 7.454773 -16.601562 16.650696c0 9.195923 7.4327774 16.650696 16.601562 16.650696l69.98933 0l0 0c9.168777 0 16.601562 -7.454773 16.601562 -16.650696c0 -9.195923 -7.432785 -16.650696 -16.601562 -16.650696z" fill-rule="evenodd"/><path fill="#e63946" d="m129.3481 227.88715l-69.98932 0l0 0c-9.168789 0 -16.601562 7.454773 -16.601562 16.650696c0 9.195938 7.4327736 16.650726 16.601562 16.650726l69.98932 0l0 0c9.168793 0 16.601562 -7.454788 16.601562 -16.650726c0 -9.195923 -7.43277 -16.650696 -16.601562 -16.650696z" fill-rule="evenodd"/><path stroke="#e63946" stroke-width="1.0" stroke-linejoin="round" stroke-linecap="butt" d="m129.3481 227.88715l-69.98932 0l0 0c-9.168789 0 -16.601562 7.454773 -16.601562 16.650696c0 9.195938 7.4327736 16.650726 16.601562 16.650726l69.98932 0l0 0c9.168793 0 16.601562 -7.454788 16.601562 -16.650726c0 -9.195923 -7.43277 -16.650696 -16.601562 -16.650696z" fill-rule="evenodd"/><path fill="#e63946" d="m95.9649 183.97113l-69.98932 0l0 0c-9.168791 0 -16.601562 7.454773 -16.601562 16.650711c0 9.195923 7.4327717 16.650711 16.601562 16.650711l69.98932 0l0 0c9.168785 0 16.601562 -7.454788 16.601562 -16.650711c0 -9.195938 -7.4327774 -16.650711 -16.601562 -16.650711z" fill-rule="evenodd"/><path stroke="#e63946" stroke-width="1.0" stroke-linejoin="round" stroke-linecap="butt" d="m95.9649 183.97113l-69.98932 0l0 0c-9.168791 0 -16.601562 7.454773 -16.601562 16.650711c0 9.195923 7.4327717 16.650711 16.601562 16.650711l69.98932 0l0 0c9.168785 0 16.601562 -7.454788 16.601562 -16.650711c0 -9.195938 -7.4327774 -16.650711 -16.601562 -16.650711z" fill-rule="evenodd"/><path fill="#e63946" d="m69.86335 217.27296l175.90552 0l0 -33.291336l-175.90552 0z" fill-rule="evenodd"/><path stroke="#e63946" stroke-width="1.0" stroke-linejoin="round" stroke-linecap="butt" d="m69.86335 217.27296l175.90552 0l0 -33.291336l-175.90552 0z" fill-rule="evenodd"/><path fill="#e63946" d="m93.04183 261.18372l92.25196 0l0 -33.29132l-92.25196 0z" fill-rule="evenodd"/><path stroke="#e63946" stroke-width="1.0" stroke-linejoin="round" stroke-linecap="butt" d="m93.04183 261.18372l92.25196 0l0 -33.29132l-92.25196 0z" fill-rule="evenodd"/></g></svg>