<svg version="1.1" viewBox="0.0 0.0 100.0 100.0" fill="none" stroke="none" stroke-linecap="square" stroke-miterlimit="10" xmlns:xlink="http://www.w3.org/1999/xlink" xmlns="http://www.w3.org/2000/svg"><clipPath id="p.0"><path d="m0 0l100.0 0l0 100.0l-100.0 0l0 -100.0z" clip-rule="nonzero"/></clipPath><g clip-path="url(#p.0)"><path fill="#000000" fill-opacity="0.0" d="m0 0l100.0 0l0 100.0l-100.0 0z" fill-rule="evenodd"/><path fill="#48090f" d="m1.3622047 18.155176l0 0c0 -8.862825 7.18474 -16.047565 16.047564 -16.047565l64.56629 0l0 0c4.2560806 0 8.337837 1.6907206 11.347343 4.700223c3.0094986 3.0095024 4.700218 7.091263 4.700218 11.347342l0 64.18834c0 8.8628235 -7.184738 16.047562 -16.047562 16.047562l-64.56629 0c-8.862824 0 -16.047564 -7.184738 -16.047564 -16.047562z" fill-rule="evenodd"/><path stroke="#48090f" stroke-width="1.0" stroke-linejoin="round" stroke-linecap="butt" d="m1.3622047 18.155176l0 0c0 -8.862825 7.18474 -16.047565 16.047564 -16.047565l64.56629 0l0 0c4.2560806 0 8.337837 1.6907206 11.347343 4.700223c3.0094986 3.0095024 4.700218 7.091263 4.700218 11.347342l0 64.18834c0 8.8628235 -7.184738 16.047562 -16.047562 16.047562l-64.56629 0c-8.862824 0 -16.047564 -7.184738 -16.047564 -16.047562z" fill-rule="evenodd"/><path fill="#fff9eb" d="m16.356955 28.414923l0 0c0 -6.181074 5.0107517 -11.191826 11.191826 -11.191826l44.765953 0l0 0c2.968254 0 5.8149414 1.1791363 7.9138184 3.2780094c2.0988693 2.098875 3.2780075 4.9455585 3.2780075 7.9138165l0 45.01792c0 6.181076 -5.01075 11.191826 -11.191826 11.191826l-44.765953 0l0 0c-6.181074 0 -11.191826 -5.01075 -11.191826 -11.191826z" fill-rule="evenodd"/><path stroke="#fff9eb" stroke-width="1.0" stroke-linejoin="round" stroke-linecap="butt" d="m16.356955 28.414923l0 0c0 -6.181074 5.0107517 -11.191826 11.191826 -11.191826l44.765953 0l0 0c2.968254 0 5.8149414 1.1791363 7.9138184 3.2780094c2.0988693 2.098875 3.2780075 4.9455585 3.2780075 7.9138165l0 45.01792c0 6.181076 -5.01075 11.191826 -11.191826 11.191826l-44.765953 0l0 0c-6.181074 0 -11.191826 -5.01075 -11.191826 -11.191826z" fill-rule="evenodd"/><path fill="#48090f" d="m22.110237 32.49887l0 0c0 -5.0880775 4.1247025 -9.212782 9.212782 -9.212782l37.35396 0l0 0c2.4433823 0 4.7866898 0.97063065 6.5144196 2.6983624c1.7277374 1.7277317 2.6983643 4.071039 2.6983643 6.5144196l0 36.85003c0 5.0880737 -4.1247025 9.212776 -9.212784 9.212776l-37.35396 0c-5.0880795 0 -9.212782 -4.1247025 -9.212782 -9.212776z" fill-rule="evenodd"/><path stroke="#48090f" stroke-width="1.0" stroke-linejoin="round" stroke-linecap="butt" d="m22.110237 32.49887l0 0c0 -5.0880775 4.1247025 -9.212782 9.212782 -9.212782l37.35396 0l0 0c2.4433823 0 4.7866898 0.97063065 6.5144196 2.6983624c1.7277374 1.7277317 2.6983643 4.071039 2.6983643 6.5144196l0 36.85003c0 5.0880737 -4.1247025 9.212776 -9.212784 9.212776l-37.35396 0c-5.0880795 0 -9.212782 -4.1247025 -9.212782 -9.212776z" fill-rule="evenodd"/><path fill="#fff9eb" d="m28.501312 51.485565l0 0c0 -11.393593 9.172874 -20.629923 20.48819 -20.629923l0 0c5.4338036 0 10.645058 2.1735058 14.487335 6.042364c3.8422852 3.8688622 6.0008545 9.116161 6.0008545 14.587559l0 0c0 11.393589 -9.172874 20.629921 -20.48819 20.629921l0 0c-11.315315 0 -20.48819 -9.236332 -20.48819 -20.629921z" fill-rule="evenodd"/><path stroke="#fff9eb" stroke-width="1.0" stroke-linejoin="round" stroke-linecap="butt" d="m28.501312 51.485565l0 0c0 -11.393593 9.172874 -20.629923 20.48819 -20.629923l0 0c5.4338036 0 10.645058 2.1735058 14.487335 6.042364c3.8422852 3.8688622 6.0008545 9.116161 6.0008545 14.587559l0 0c0 11.393589 -9.172874 20.629921 -20.48819 20.629921l0 0c-11.315315 0 -20.48819 -9.236332 -20.48819 -20.629921z" fill-rule="evenodd"/><path fill="#fff9eb" d="m67.178474 31.351706l0 0c0 -1.3741875 1.1069565 -2.4881878 2.4724426 -2.4881878l0 0c0.6557312 0 1.2846069 0.2621479 1.7482834 0.7287731c0.46366882 0.4666252 0.72415924 1.0995064 0.72415924 1.7594147l0 0c0 1.3741894 -1.1069489 2.4881878 -2.4724426 2.4881878l0 0c-1.3654861 0 -2.4724426 -1.1139984 -2.4724426 -2.4881878z" fill-rule="evenodd"/><path stroke="#fff9eb" stroke-width="1.0" stroke-linejoin="round" stroke-linecap="butt" d="m67.178474 31.351706l0 0c0 -1.3741875 1.1069565 -2.4881878 2.4724426 -2.4881878l0 0c0.6557312 0 1.2846069 0.2621479 1.7482834 0.7287731c0.46366882 0.4666252 0.72415924 1.0995064 0.72415924 1.7594147l0 0c0 1.3741894 -1.1069489 2.4881878 -2.4724426 2.4881878l0 0c-1.3654861 0 -2.4724426 -1.1139984 -2.4724426 -2.4881878z" fill-rule="evenodd"/><path fill="#48090f" d="m33.666668 51.485565l0 0c0 -8.523449 6.860264 -15.433071 15.322834 -15.433071l0 0c4.0638695 0 7.9612923 1.6259804 10.834881 4.520241c2.8735886 2.8942642 4.4879494 6.819725 4.4879494 10.91283l0 0c0 8.523449 -6.860264 15.433067 -15.32283 15.433067l0 0c-8.46257 0 -15.322834 -6.9096184 -15.322834 -15.433067z" fill-rule="evenodd"/><path stroke="#48090f" stroke-width="1.0" stroke-linejoin="round" stroke-linecap="butt" d="m33.666668 51.485565l0 0c0 -8.523449 6.860264 -15.433071 15.322834 -15.433071l0 0c4.0638695 0 7.9612923 1.6259804 10.834881 4.520241c2.8735886 2.8942642 4.4879494 6.819725 4.4879494 10.91283l0 0c0 8.523449 -6.860264 15.433067 -15.32283 15.433067l0 0c-8.46257 0 -15.322834 -6.9096184 -15.322834 -15.433067z" fill-rule="evenodd"/></g></svg>