<svg version="1.1" viewBox="0.0 0.0 716.5958005249344 571.2913385826772" fill="none" stroke="none" stroke-linecap="square" stroke-miterlimit="10" xmlns:xlink="http://www.w3.org/1999/xlink" xmlns="http://www.w3.org/2000/svg"><clipPath id="p.0"><path d="m0 0l716.5958 0l0 571.2913l-716.5958 0l0 -571.2913z" clip-rule="nonzero"/></clipPath><g clip-path="url(#p.0)"><path fill="#000000" fill-opacity="0.0" d="m0 0l716.5958 0l0 571.2913l-716.5958 0z" fill-rule="evenodd"/><path fill="#48090f" d="m560.28955 138.81364l69.98932 0l0 0c9.168762 0 16.601562 7.454773 16.601562 16.650711c0 9.195938 -7.4328003 16.650711 -16.601562 16.650711l-69.98932 0l0 0c-9.168823 0 -16.601562 -7.454773 -16.601562 -16.650711c0 -9.195938 7.4327393 -16.650711 16.601562 -16.650711z" fill-rule="evenodd"/><path stroke="#48090f" stroke-width="1.0" stroke-linejoin="round" stroke-linecap="butt" d="m560.28955 138.81364l69.98932 0l0 0c9.168762 0 16.601562 7.454773 16.601562 16.650711c0 9.195938 -7.4328003 16.650711 -16.601562 16.650711l-69.98932 0l0 0c-9.168823 0 -16.601562 -7.454773 -16.601562 -16.650711c0 -9.195938 7.4327393 -16.650711 16.601562 -16.650711z" fill-rule="evenodd"/><path fill="#48090f" d="m618.8512 50.98163l69.98932 0l0 0c9.168823 0 16.601562 7.454777 16.601562 16.650711c0 9.1959305 -7.4327393 16.650703 -16.601562 16.650703l-69.98932 0l0 0c-9.168762 0 -16.601562 -7.454773 -16.601562 -16.650703c0 -9.195934 7.4328003 -16.650711 16.601562 -16.650711z" fill-rule="evenodd"/><path stroke="#48090f" stroke-width="1.0" stroke-linejoin="round" stroke-linecap="butt" d="m618.8512 50.98163l69.98932 0l0 0c9.168823 0 16.601562 7.454777 16.601562 16.650711c0 9.1959305 -7.4327393 16.650703 -16.601562 16.650703l-69.98932 0l0 0c-9.168762 0 -16.601562 -7.454773 -16.601562 -16.650703c0 -9.195934 7.4328003 -16.650711 16.601562 -16.650711z" fill-rule="evenodd"/><path fill="#48090f" d="m644.95276 84.28346l-175.90552 0l0 -33.291336l175.90552 0z" fill-rule="evenodd"/><path stroke="#48090f" stroke-width="1.0" stroke-linejoin="round" stroke-linecap="butt" d="m644.95276 84.28346l-175.90552 0l0 -33.291336l175.90552 0z" fill-rule="evenodd"/><path fill="#48090f" d="m585.468 94.89764l69.98932 0l0 0c9.168762 0 16.601562 7.4547806 16.601562 16.650711c0 9.1959305 -7.4328003 16.650703 -16.601562 16.650703l-69.98932 0l0 0c-9.168823 0 -16.601562 -7.454773 -16.601562 -16.650703c0 -9.1959305 7.4327393 -16.650711 16.601562 -16.650711z" fill-rule="evenodd"/><path stroke="#48090f" stroke-width="1.0" stroke-linejoin="round" stroke-linecap="butt" d="m585.468 94.89764l69.98932 0l0 0c9.168762 0 16.601562 7.4547806 16.601562 16.650711c0 9.1959305 -7.4328003 16.650703 -16.601562 16.650703l-69.98932 0l0 0c-9.168823 0 -16.601562 -7.454773 -16.601562 -16.650703c0 -9.1959305 7.4327393 -16.650711 16.601562 -16.650711z" fill-rule="evenodd"/><path fill="#48090f" d="m621.7743 128.19423l-92.25195 0l0 -33.291344l92.25195 0z" fill-rule="evenodd"/><path stroke="#48090f" stroke-width="1.0" stroke-linejoin="round" stroke-linecap="butt" d="m621.7743 128.19423l-92.25195 0l0 -33.291344l92.25195 0z" fill-rule="evenodd"/><path fill="#48090f" d="m156.3048 138.81364l-69.98932 0l0 0c-9.168793 0 -16.601562 7.454773 -16.601562 16.650711c0 9.195938 7.43277 16.650711 16.601562 16.650711l69.98932 0l0 0c9.168777 0 16.601562 -7.454773 16.601562 -16.650711c0 -9.195938 -7.432785 -16.650711 -16.601562 -16.650711z" fill-rule="evenodd"/><path stroke="#48090f" stroke-width="1.0" stroke-linejoin="round" stroke-linecap="butt" d="m156.3048 138.81364l-69.98932 0l0 0c-9.168793 0 -16.601562 7.454773 -16.601562 16.650711c0 9.195938 7.43277 16.650711 16.601562 16.650711l69.98932 0l0 0c9.168777 0 16.601562 -7.454773 16.601562 -16.650711c0 -9.195938 -7.432785 -16.650711 -16.601562 -16.650711z" fill-rule="evenodd"/><path fill="#48090f" d="m97.74311 50.98163l-69.98932 0l0 0c-9.168789 0 -16.60156 7.454777 -16.60156 16.650711c0 9.1959305 7.4327717 16.650703 16.60156 16.650703l69.98932 0l0 0c9.168793 0 16.601562 -7.454773 16.601562 -16.650703c0 -9.195934 -7.43277 -16.650711 -16.601562 -16.650711z" fill-rule="evenodd"/><path stroke="#48090f" stroke-width="1.0" stroke-linejoin="round" stroke-linecap="butt" d="m97.74311 50.98163l-69.98932 0l0 0c-9.168789 0 -16.60156 7.454777 -16.60156 16.650711c0 9.1959305 7.4327717 16.650703 16.60156 16.650703l69.98932 0l0 0c9.168793 0 16.601562 -7.454773 16.601562 -16.650703c0 -9.195934 -7.43277 -16.650711 -16.601562 -16.650711z" fill-rule="evenodd"/><path fill="#48090f" d="m71.64157 84.28346l175.9055 0l0 -33.291336l-175.9055 0z" fill-rule="evenodd"/><path stroke="#48090f" stroke-width="1.0" stroke-linejoin="round" stroke-linecap="butt" d="m71.64157 84.28346l175.9055 0l0 -33.291336l-175.9055 0z" fill-rule="evenodd"/><path fill="#48090f" d="m131.12631 94.89764l-69.98932 0l0 0c-9.168789 0 -16.601559 7.4547806 -16.601559 16.650711c0 9.1959305 7.43277 16.650703 16.601559 16.650703l69.98932 0l0 0c9.168793 0 16.601562 -7.454773 16.601562 -16.650703c0 -9.1959305 -7.43277 -16.650711 -16.601562 -16.650711z" fill-rule="evenodd"/><path stroke="#48090f" stroke-width="1.0" stroke-linejoin="round" stroke-linecap="butt" d="m131.12631 94.89764l-69.98932 0l0 0c-9.168789 0 -16.601559 7.4547806 -16.601559 16.650711c0 9.1959305 7.43277 16.650703 16.601559 16.650703l69.98932 0l0 0c9.168793 0 16.601562 -7.454773 16.601562 -16.650703c0 -9.1959305 -7.43277 -16.650711 -16.601562 -16.650711z" fill-rule="evenodd"/><path fill="#48090f" d="m94.820045 128.19423l92.251976 0l0 -33.291344l-92.251976 0z" fill-rule="evenodd"/><path stroke="#48090f" stroke-width="1.0" stroke-linejoin="round" stroke-linecap="butt" d="m94.820045 128.19423l92.251976 0l0 -33.291344l-92.251976 0z" fill-rule="evenodd"/><path fill="#48090f" d="m144.24803 125.760025l0 0c0 -41.298965 33.47943 -74.7784 74.7784 -74.7784l299.1046 0l0 0c19.832458 0 38.85266 7.878414 52.876343 21.902084c14.023621 14.023674 21.902039 33.043846 21.902039 52.876312l0 339.5141c0 41.29895 -33.47943 74.77838 -74.77838 74.77838l-299.1046 0l0 0c-41.298965 0 -74.7784 -33.47943 -74.7784 -74.77838z" fill-rule="evenodd"/><path stroke="#48090f" stroke-width="1.0" stroke-linejoin="round" stroke-linecap="butt" d="m144.24803 125.760025l0 0c0 -41.298965 33.47943 -74.7784 74.7784 -74.7784l299.1046 0l0 0c19.832458 0 38.85266 7.878414 52.876343 21.902084c14.023621 14.023674 21.902039 33.043846 21.902039 52.876312l0 339.5141c0 41.29895 -33.47943 74.77838 -74.77838 74.77838l-299.1046 0l0 0c-41.298965 0 -74.7784 -33.47943 -74.7784 -74.77838z" fill-rule="evenodd"/><path fill="#fff9eb" d="m164.32808 137.16672l0 0c0 -37.657585 30.527512 -68.18509 68.18509 -68.18509l272.73218 0l0 0c18.083801 0 35.42694 7.1837616 48.21411 19.970947c12.787231 12.787186 19.970947 30.130333 19.970947 48.21414l0 316.70068c0 37.657593 -30.527466 68.18509 -68.18506 68.18509l-272.73218 0c-37.657578 0 -68.18509 -30.527496 -68.18509 -68.18509z" fill-rule="evenodd"/><path stroke="#fff9eb" stroke-width="1.0" stroke-linejoin="round" stroke-linecap="butt" d="m164.32808 137.16672l0 0c0 -37.657585 30.527512 -68.18509 68.18509 -68.18509l272.73218 0l0 0c18.083801 0 35.42694 7.1837616 48.21411 19.970947c12.787231 12.787186 19.970947 30.130333 19.970947 48.21414l0 316.70068c0 37.657593 -30.527466 68.18509 -68.18506 68.18509l-272.73218 0c-37.657578 0 -68.18509 -30.527496 -68.18509 -68.18509z" fill-rule="evenodd"/><path fill="#000000" fill-opacity="0.0" d="m177.68504 31.38845l454.48816 0l0 584.9764l-454.48816 0z" fill-rule="evenodd"/><path fill="#48090f" d="m242.68504 157.9978q10.734375 0 18.656235 7.703125q7.9375 7.6875 7.9375 18.890625q0 11.671875 -7.46875 19.140625q-7.4531097 7.46875 -19.124985 7.46875q-11.671875 0 -19.140625 -7.46875q-7.453125 -7.46875 -7.453125 -19.140625q0 -11.203125 7.921875 -18.890625q7.9375 -7.703125 18.671875 -7.703125zm18.20311 112.0l0 218.39062l-36.406235 0l0 -218.39062l36.406235 0zm179.65375 -5.609375q41.0625 0 62.0625 23.8125q21.00003 23.796875 21.00003 63.453125l0 136.73438l-36.390656 0l0 -132.53125q0 -25.203125 -11.671875 -41.296875q-11.65625 -16.09375 -38.265625 -16.5625q-33.59375 0 -50.625 22.171875q-17.03125 22.15625 -17.03125 61.359375l0 106.859375l-36.40625 0l0 -169.85938q0 -2.34375 -1.859375 -48.53125l34.53125 0q0.921875 32.65625 0.921875 35.921875l0.9375 0q8.875 -18.65625 28.703125 -30.09375q19.828125 -11.4375 44.09375 -11.4375z" fill-rule="nonzero"/></g></svg>