<svg version="1.1" viewBox="0.0 0.0 375.1653543307087 215.96062992125985" fill="none" stroke="none" stroke-linecap="square" stroke-miterlimit="10" xmlns:xlink="http://www.w3.org/1999/xlink" xmlns="http://www.w3.org/2000/svg"><clipPath id="p.0"><path d="m0 0l375.16534 0l0 215.96063l-375.16534 0l0 -215.96063z" clip-rule="nonzero"/></clipPath><g clip-path="url(#p.0)"><path fill="#000000" fill-opacity="0.0" d="m0 0l375.16534 0l0 215.96063l-375.16534 0z" fill-rule="evenodd"/><path fill="#e63946" d="m0.34383202 0.34383202l375.1811 0l0 215.9685l-375.1811 0z" fill-rule="evenodd"/><path stroke="#e63946" stroke-width="1.0" stroke-linejoin="round" stroke-linecap="butt" d="m0.34383202 0.34383202l375.1811 0l0 215.9685l-375.1811 0z" fill-rule="evenodd"/><path fill="#fff9eb" d="m0 120.42519l378.33072 0l0 95.90551l-378.33072 0z" fill-rule="evenodd"/><path stroke="#fff9eb" stroke-width="1.0" stroke-linejoin="round" stroke-linecap="butt" d="m0 120.42519l378.33072 0l0 95.90551l-378.33072 0z" fill-rule="evenodd"/><path fill="#fff9eb" d="m242.48529 68.57254l10.698517 -2.344963l2.2973633 -10.920185l2.2973633 10.920185l10.698517 2.344963l-10.698517 2.3449707l-2.2973633 10.920181l-2.2973633 -10.920181z" fill-rule="evenodd"/><path stroke="#fff9eb" stroke-width="1.0" stroke-linejoin="round" stroke-linecap="butt" d="m242.48529 68.57254l10.698517 -2.344963l2.2973633 -10.920185l2.2973633 10.920185l10.698517 2.344963l-10.698517 2.3449707l-2.2973633 10.920181l-2.2973633 -10.920181z" fill-rule="evenodd"/><path fill="#fff9eb" d="m237.4212 45.71423l6.372711 -1.6958504l1.368454 -7.897316l1.3684692 7.897316l6.372711 1.6958504l-6.372711 1.6958466l-1.3684692 7.897316l-1.368454 -7.897316z" fill-rule="evenodd"/><path stroke="#fff9eb" stroke-width="1.0" stroke-linejoin="round" stroke-linecap="butt" d="m237.4212 45.71423l6.372711 -1.6958504l1.368454 -7.897316l1.3684692 7.897316l6.372711 1.6958504l-6.372711 1.6958466l-1.3684692 7.897316l-1.368454 -7.897316z" fill-rule="evenodd"/><path fill="#fff9eb" d="m219.51596 58.174267l10.698502 -2.344967l2.2973785 -10.920181l2.2973633 10.920181l10.698517 2.344967l-10.698517 2.3449707l-2.2973633 10.920177l-2.2973785 -10.920177z" fill-rule="evenodd"/><path stroke="#fff9eb" stroke-width="1.0" stroke-linejoin="round" stroke-linecap="butt" d="m219.51596 58.174267l10.698502 -2.344967l2.2973785 -10.920181l2.2973633 10.920181l10.698517 2.344967l-10.698517 2.3449707l-2.2973633 10.920177l-2.2973785 -10.920177z" fill-rule="evenodd"/><path fill="#fff9eb" d="m137.55544 85.51394l0 0c-18.465393 0 -33.434555 -12.240387 -33.434555 -27.339672c0 -15.099281 14.969162 -27.339668 33.434555 -27.339668l0 0c-11.549767 5.878582 -18.57122 16.215237 -18.57122 27.339668c0 11.124432 7.021454 21.461086 18.57122 27.339672z" fill-rule="evenodd"/><path stroke="#fff9eb" stroke-width="1.0" stroke-linejoin="round" stroke-linecap="butt" d="m137.55544 85.51394l0 0c-18.465393 0 -33.434555 -12.240387 -33.434555 -27.339672c0 -15.099281 14.969162 -27.339668 33.434555 -27.339668l0 0c-11.549767 5.878582 -18.57122 16.215237 -18.57122 27.339668c0 11.124432 7.021454 21.461086 18.57122 27.339672z" fill-rule="evenodd"/><path fill="#fff9eb" d="m204.10683 31.30318l0 53.742176l-36.86586 0l0 -53.742176z" fill-rule="evenodd"/><path stroke="#fff9eb" stroke-width="1.0" stroke-linejoin="round" stroke-linecap="butt" d="m204.10683 31.30318l0 53.742176l-36.86586 0l0 -53.742176z" fill-rule="evenodd"/><path fill="#fff9eb" d="m191.07365 58.174267l0 0c0 -30.706736 24.21634 -55.599464 54.088715 -55.599464l0 0c14.34523 0 28.10289 5.8577833 38.246506 16.284706c10.143616 10.426924 15.842224 24.568863 15.842224 39.31476l0 0c0 30.706738 -24.21634 55.59947 -54.08873 55.59947l0 0c-29.872375 0 -54.088715 -24.89273 -54.088715 -55.59947zm23.53833 0l0 0c0 17.706875 13.677872 32.06114 30.550385 32.06114c16.872513 0 30.5504 -14.354263 30.5504 -32.06114c0 -17.706875 -13.677887 -32.061134 -30.5504 -32.061134l0 0c-16.872513 0 -30.550385 14.3542595 -30.550385 32.061134z" fill-rule="evenodd"/><path stroke="#fff9eb" stroke-width="1.0" stroke-linejoin="round" stroke-linecap="butt" d="m191.07365 58.174267l0 0c0 -30.706736 24.21634 -55.599464 54.088715 -55.599464l0 0c14.34523 0 28.10289 5.8577833 38.246506 16.284706c10.143616 10.426924 15.842224 24.568863 15.842224 39.31476l0 0c0 30.706738 -24.21634 55.59947 -54.08873 55.59947l0 0c-29.872375 0 -54.088715 -24.89273 -54.088715 -55.59947zm23.53833 0l0 0c0 17.706875 13.677872 32.06114 30.550385 32.06114c16.872513 0 30.5504 -14.354263 30.5504 -32.06114c0 -17.706875 -13.677887 -32.061134 -30.5504 -32.061134l0 0c-16.872513 0 -30.550385 14.3542595 -30.550385 32.061134z" fill-rule="evenodd"/><path fill="#fff9eb" d="m294.7372 50.091927l36.83539 0l0 0c4.825531 0 8.737396 4.0330353 8.737396 9.008034c0 4.9749985 -3.9118652 9.008034 -8.737396 9.008034l-36.83539 0l0 0c-4.825531 0 -8.737396 -4.0330353 -8.737396 -9.008034c0 -4.9749985 3.9118652 -9.008034 8.737396 -9.008034z" fill-rule="evenodd"/><path stroke="#fff9eb" stroke-width="1.0" stroke-linejoin="round" stroke-linecap="butt" d="m294.7372 50.091927l36.83539 0l0 0c4.825531 0 8.737396 4.0330353 8.737396 9.008034c0 4.9749985 -3.9118652 9.008034 -8.737396 9.008034l-36.83539 0l0 0c-4.825531 0 -8.737396 -4.0330353 -8.737396 -9.008034c0 -4.9749985 3.9118652 -9.008034 8.737396 -9.008034z" fill-rule="evenodd"/><path fill="#fff9eb" d="m307.98865 26.333364l36.83539 0l0 0c4.825531 0 8.737396 4.0330334 8.737396 9.008032c0 4.9750023 -3.9118652 9.008034 -8.737396 9.008034l-36.83539 0l0 0c-4.825531 0 -8.737396 -4.0330315 -8.737396 -9.008034c0 -4.9749985 3.9118652 -9.008032 8.737396 -9.008032z" fill-rule="evenodd"/><path stroke="#fff9eb" stroke-width="1.0" stroke-linejoin="round" stroke-linecap="butt" d="m307.98865 26.333364l36.83539 0l0 0c4.825531 0 8.737396 4.0330334 8.737396 9.008032c0 4.9750023 -3.9118652 9.008034 -8.737396 9.008034l-36.83539 0l0 0c-4.825531 0 -8.737396 -4.0330315 -8.737396 -9.008034c0 -4.9749985 3.9118652 -9.008032 8.737396 -9.008032z" fill-rule="evenodd"/><path fill="#fff9eb" d="m325.55823 2.574803l36.83539 0l0 0c4.825531 0 8.737396 4.0330343 8.737396 9.008033c0 4.9750004 -3.9118652 9.008034 -8.737396 9.008034l-36.83539 0l0 0c-4.825531 0 -8.737396 -4.0330334 -8.737396 -9.008034c0 -4.974999 3.9118652 -9.008033 8.737396 -9.008033z" fill-rule="evenodd"/><path stroke="#fff9eb" stroke-width="1.0" stroke-linejoin="round" stroke-linecap="butt" d="m325.55823 2.574803l36.83539 0l0 0c4.825531 0 8.737396 4.0330343 8.737396 9.008033c0 4.9750004 -3.9118652 9.008034 -8.737396 9.008034l-36.83539 0l0 0c-4.825531 0 -8.737396 -4.0330334 -8.737396 -9.008034c0 -4.974999 3.9118652 -9.008033 8.737396 -9.008033z" fill-rule="evenodd"/><path fill="#fff9eb" d="m339.29547 20.591097l-92.579056 0l0 -18.010614l92.579056 0z" fill-rule="evenodd"/><path stroke="#fff9eb" stroke-width="1.0" stroke-linejoin="round" stroke-linecap="butt" d="m339.29547 20.591097l-92.579056 0l0 -18.010614l92.579056 0z" fill-rule="evenodd"/><path fill="#fff9eb" d="m327.09665 44.346817l-48.552216 0l0 -18.010612l48.552216 0z" fill-rule="evenodd"/><path stroke="#fff9eb" stroke-width="1.0" stroke-linejoin="round" stroke-linecap="butt" d="m327.09665 44.346817l-48.552216 0l0 -18.010612l48.552216 0z" fill-rule="evenodd"/><path fill="#fff9eb" d="m183.17285 58.979378l0 0c0 -30.706736 -24.21634 -55.599464 -54.088715 -55.599464l0 0c-14.34523 0 -28.102905 5.8577843 -38.246506 16.284706c-10.143608 10.426922 -15.842224 24.568863 -15.842224 39.31476l0 0c0 30.706734 24.216347 55.599464 54.08873 55.599464l0 0c29.872375 0 54.088715 -24.89273 54.088715 -55.599464zm-23.53833 0l0 0c0 17.706879 -13.677872 32.061134 -30.550385 32.061134c-16.87252 0 -30.5504 -14.354256 -30.5504 -32.061134c0 -17.706875 13.677879 -32.061134 30.5504 -32.061134l0 0c16.872513 0 30.550385 14.3542595 30.550385 32.061134z" fill-rule="evenodd"/><path stroke="#fff9eb" stroke-width="1.0" stroke-linejoin="round" stroke-linecap="butt" d="m183.17285 58.979378l0 0c0 -30.706736 -24.21634 -55.599464 -54.088715 -55.599464l0 0c-14.34523 0 -28.102905 5.8577843 -38.246506 16.284706c-10.143608 10.426922 -15.842224 24.568863 -15.842224 39.31476l0 0c0 30.706734 24.216347 55.599464 54.08873 55.599464l0 0c29.872375 0 54.088715 -24.89273 54.088715 -55.599464zm-23.53833 0l0 0c0 17.706879 -13.677872 32.061134 -30.550385 32.061134c-16.87252 0 -30.5504 -14.354256 -30.5504 -32.061134c0 -17.706875 13.677879 -32.061134 30.5504 -32.061134l0 0c16.872513 0 30.550385 14.3542595 30.550385 32.061134z" fill-rule="evenodd"/><path fill="#fff9eb" d="m79.50928 50.897038l-36.835377 0l0 0c-4.825535 0 -8.737404 4.0330315 -8.737404 9.008034c0 4.9749947 3.911869 9.00803 8.737404 9.00803l36.835377 0l0 0c4.825531 0 8.737404 -4.0330353 8.737404 -9.00803c0 -4.9750023 -3.9118729 -9.008034 -8.737404 -9.008034z" fill-rule="evenodd"/><path stroke="#fff9eb" stroke-width="1.0" stroke-linejoin="round" stroke-linecap="butt" d="m79.50928 50.897038l-36.835377 0l0 0c-4.825535 0 -8.737404 4.0330315 -8.737404 9.008034c0 4.9749947 3.911869 9.00803 8.737404 9.00803l36.835377 0l0 0c4.825531 0 8.737404 -4.0330353 8.737404 -9.00803c0 -4.9750023 -3.9118729 -9.008034 -8.737404 -9.008034z" fill-rule="evenodd"/><path fill="#fff9eb" d="m66.25784 27.138475l-36.835377 0l0 0c-4.825533 0 -8.737402 4.0330334 -8.737402 9.008032c0 4.9750023 3.911869 9.008034 8.737402 9.008034l36.835377 0l0 0c4.8255386 0 8.737404 -4.0330315 8.737404 -9.008034c0 -4.9749985 -3.9118652 -9.008032 -8.737404 -9.008032z" fill-rule="evenodd"/><path stroke="#fff9eb" stroke-width="1.0" stroke-linejoin="round" stroke-linecap="butt" d="m66.25784 27.138475l-36.835377 0l0 0c-4.825533 0 -8.737402 4.0330334 -8.737402 9.008032c0 4.9750023 3.911869 9.008034 8.737402 9.008034l36.835377 0l0 0c4.8255386 0 8.737404 -4.0330315 8.737404 -9.008034c0 -4.9749985 -3.9118652 -9.008032 -8.737404 -9.008032z" fill-rule="evenodd"/><path fill="#fff9eb" d="m48.688267 3.3799133l-36.83538 0l0 0c-4.8255334 0 -8.737402 4.033034 -8.737402 9.008034c0 4.9749985 3.911868 9.008034 8.737402 9.008034l36.83538 0l0 0c4.825531 0 8.7374 -4.0330353 8.7374 -9.008034c0 -4.975 -3.911869 -9.008034 -8.7374 -9.008034z" fill-rule="evenodd"/><path stroke="#fff9eb" stroke-width="1.0" stroke-linejoin="round" stroke-linecap="butt" d="m48.688267 3.3799133l-36.83538 0l0 0c-4.8255334 0 -8.737402 4.033034 -8.737402 9.008034c0 4.9749985 3.911868 9.008034 8.737402 9.008034l36.83538 0l0 0c4.825531 0 8.7374 -4.0330353 8.7374 -9.008034c0 -4.975 -3.911869 -9.008034 -8.7374 -9.008034z" fill-rule="evenodd"/><path fill="#fff9eb" d="m34.951023 21.396208l92.57907 0l0 -18.010614l-92.57907 0z" fill-rule="evenodd"/><path stroke="#fff9eb" stroke-width="1.0" stroke-linejoin="round" stroke-linecap="butt" d="m34.951023 21.396208l92.57907 0l0 -18.010614l-92.57907 0z" fill-rule="evenodd"/><path fill="#fff9eb" d="m47.149857 45.151928l48.552208 0l0 -18.010612l-48.552208 0z" fill-rule="evenodd"/><path stroke="#fff9eb" stroke-width="1.0" stroke-linejoin="round" stroke-linecap="butt" d="m47.149857 45.151928l48.552208 0l0 -18.010612l-48.552208 0z" fill-rule="evenodd"/><path fill="#000000" fill-opacity="0.0" d="m-1.0659263 130.5748l378.33307 0l0 56.0l-378.33307 0z" fill-rule="evenodd"/><path fill="#e63946" d="m21.702187 158.9898q0 8.8125 5.25 14.84375q5.25 6.03125 12.75 6.03125q5.625 0 10.28125 -3.4375q4.65625 -3.4375 6.40625 -9.125q0.3125 -0.875 0.9375 -0.875q1.0625 0 1.0625 0.75q-1.4375 9.9375 -1.625 10.375q-0.3125 1.0625 -1.4375 1.0625l-0.0625 0l-1.75 0q-0.75 0 -1.09375 0.125q-0.34375 0.125 -0.9375 0.5625q-0.59375 0.4375 -0.96875 0.625q-5.625 3.25 -11.875 3.25q-4.4375 0 -8.6875 -1.75q-4.25 -1.75 -7.5 -4.875q-3.25 -3.1875 -5.09375 -7.5q-1.843751 -4.3125 -1.843751 -8.875q0 -4.6875 1.937501 -9.0625q1.9375 -4.375 5.1875 -7.5q6.875 -6.5625 16.3125 -6.5625l0.0625 0q3.4375 0 6.34375 0.84375q2.90625 0.84375 4.5 1.71875q1.59375 0.875 1.71875 0.875q0.5 0 0.875 -1.0625q0.375 -1.0625 1.0 -1.25q0.125 0 0.375 -0.03125q0.25 -0.03125 0.3125 -0.03125q0.6875 0 0.8125 0.75l0.4375 3.25q0.4375 3.3125 0.875 6.6875q0.4375 3.375 0.4375 3.625q0 1.0625 -1.3125 1.0625q-1.1875 0 -1.375 -0.40625q-0.1875 -0.40625 -0.4375 -2.59375q-0.3125 -2.375 -1.6875 -4.1875q-2.1875 -2.75 -5.5625 -4.53125q-3.375 -1.78125 -7.5 -1.78125q-6.9375 0 -12.03125 5.25q-5.09375 5.25 -5.09375 13.75z" fill-rule="nonzero"/><path fill="#e63946" d="m119.36625 160.0523q0 9.9375 -6.71875 16.53125q-6.71875 6.59375 -16.21875 6.59375q-4.6875 0 -9.1875 -1.8125q-4.5 -1.8125 -7.9375 -5.125q-7.3125 -7.0625 -7.4375 -17.1875q0 -9.6875 6.96875 -16.59375q6.96875 -6.90625 16.65625 -6.90625q10.125 0 17.0 7.25q6.875 7.25 6.875 17.25zm-41.375 -3.0q0 4.25 1.15625 8.1875q1.15625 3.9375 3.34375 7.125q2.1875 3.1875 5.75 5.125q3.5625 1.9375 7.9375 1.9375q2.9375 0 5.75 -1.0q2.8125 -1.0 5.375 -3.03125q2.5625 -2.03125 4.15625 -5.71875q1.59375 -3.6875 1.59375 -8.5q0 -5.0625 -1.71875 -9.90625q-1.71875 -4.84375 -5.34375 -8.03125q-4.875 -4.3125 -11.5 -4.3125q-3.0625 0 -5.9375 1.09375q-2.875 1.09375 -5.28125 3.1875q-2.40625 2.09375 -3.84375 5.6875q-1.4375 3.59375 -1.4375 8.15625z" fill-rule="nonzero"/><path fill="#e63946" d="m179.6553 139.1773q0 0.875 -0.6875 1.15625q-0.6875 0.28125 -1.46875 0.28125q-0.78125 0 -1.46875 1.03125q-0.6875 1.03125 -0.6875 3.34375q0 0.125 -0.03125 0.375q-0.03125 0.25 -0.03125 0.3125l0 14.5q0 0.5 0.03125 1.5q0.03125 1.0 0.03125 1.5l0 2.0625q0 2.0625 -0.15625 3.65625q-0.15625 1.59375 -0.6875 3.65625q-0.53125 2.0625 -1.75 3.8125q-1.21875 1.75 -3.09375 3.0625q-4.4375 3.125 -12.0625 3.125q-4.3125 0 -7.78125 -0.9375q-3.46875 -0.9375 -5.375 -2.15625q-1.90625 -1.21875 -3.34375 -2.9375q-1.4375 -1.71875 -1.90625 -2.75q-0.46875 -1.03125 -0.78125 -2.15625q-0.8125 -2.9375 -0.8125 -8.1875q0 -0.8125 0.03125 -2.4375q0.03125 -1.625 0.03125 -2.4375l0 -16.125q0 -0.375 -0.03125 -0.65625q-0.03125 -0.28125 -0.21875 -0.4375q-0.1875 -0.15625 -0.25 -0.28125q-0.0625 -0.125 -0.4375 -0.1875q-0.375 -0.0625 -0.46875 -0.09375q-0.09375 -0.03125 -0.625 -0.09375q-0.53125 -0.0625 -0.65625 -0.0625q-1.75 -0.25 -1.75 -1.5625q0 -1.5625 1.3125 -1.5625q0.1875 0 1.0 0.0625q0.8125 0.0625 2.28125 0.125q1.46875 0.0625 3.15625 0.0625l0.375 0q1.8125 0 3.375 -0.0625q1.5625 -0.0625 2.4375 -0.125q0.875 -0.0625 1.0625 -0.0625q1.1875 0 1.1875 1.6875q0 0.5 -0.125 0.8125q-0.125 0.3125 -0.53125 0.4375q-0.40625 0.125 -0.75 0.1875q-0.34375 0.0625 -1.15625 0.125q-0.8125 0.0625 -1.375 0.125q-2.0625 0.25 -2.0625 2.25l0 20.0q0 4.25 0.75 7.1875q0.75 2.9375 3.1875 5.125q3.8125 3.5 11.5 3.5q8.9375 0 11.6875 -5.8125q1.25 -2.625 1.25 -7.125l0 -0.875q0 -0.6875 -0.03125 -2.0q-0.03125 -1.3125 -0.03125 -2.0l0 -17.375q0 -1.125 -0.1875 -1.78125q-0.1875 -0.65625 -0.96875 -0.96875q-0.78125 -0.3125 -1.15625 -0.375q-0.375 -0.0625 -2.0 -0.25q-1.375 -0.125 -1.375 -1.4375q0 -1.4375 1.1875 -1.4375q0.125 0 0.875 0.0625q0.75 0.0625 2.0 0.125q1.25 0.0625 2.75 0.0625q1.5 0 2.75 -0.0625q1.25 -0.0625 2.0 -0.125q0.75 -0.0625 0.875 -0.0625q1.1875 0 1.1875 1.6875z" fill-rule="nonzero"/><path fill="#e63946" d="m220.25687 149.8648q0 -3.9375 -3.25 -6.84375q-3.25 -2.90625 -8.0 -2.90625q-2.9375 0 -3.8125 0.6875q-0.375 0.25 -0.375 1.0q0 0.0625 0 0.0625l0.0625 0.125l0 15.0625q0 0.8125 0.625 0.96875q0.625 0.15625 3.5625 0.15625q3.625 0 5.9375 -0.875q2.1875 -0.875 3.71875 -2.8125q1.53125 -1.9375 1.53125 -4.625zm-9.9375 -12.1875q4.0625 0 7.125 1.09375q3.0625 1.09375 4.65625 2.8125q1.59375 1.71875 2.34375 3.53125q0.75 1.8125 0.75 3.6875q0 4.125 -2.5625 7.0q-2.5625 2.875 -4.6875 3.625q-0.3125 0.1875 -0.3125 0.3125q0 0.125 0.125 0.25q3.4375 4.0 5.84375 7.46875q2.40625 3.46875 3.75 5.71875q1.34375 2.25 2.21875 3.25q1.8125 2.0625 3.4375 2.0625q0.9375 0 1.6875 -0.71875q0.75 -0.71875 1.0625 -0.71875q0.6875 0 0.6875 0.75q0 1.0625 -1.59375 2.84375q-1.59375 1.78125 -4.03125 1.78125q-3.25 0 -6.75 -4.625l-6.375 -9.125q-5.4375 -7.625 -5.9375 -7.9375q-0.3125 -0.25 -1.0625 -0.25l-4.6875 0q-0.875 0 -0.875 0.9375l0 14.8125l0 0.1875q0 1.875 1.625 2.0625q0.5625 0.0625 1.3125 0.125q0.75 0.0625 1.15625 0.09375q0.40625 0.03125 0.9375 0.0625q0.53125 0.03125 0.8125 0.09375q0.28125 0.0625 0.625 0.15625q0.34375 0.09375 0.5 0.21875q0.15625 0.125 0.28125 0.34375q0.125 0.21875 0.1875 0.46875q0.0625 0.25 0.0625 0.5625q0 1.375 -1.3125 1.375q-0.0625 0 -0.53125 -0.03125q-0.46875 -0.03125 -1.21875 -0.09375q-0.75 -0.0625 -1.71875 -0.125q-0.96875 -0.0625 -2.25 -0.09375q-1.28125 -0.03125 -2.53125 -0.03125q-1.25 0 -2.53125 0.03125q-1.28125 0.03125 -2.21875 0.09375q-0.9375 0.0625 -1.71875 0.125q-0.78125 0.0625 -1.21875 0.09375q-0.4375 0.03125 -0.5 0.03125q-1.125 0 -1.125 -1.75q0 -0.25 0.03125 -0.4375q0.03125 -0.1875 0.125 -0.3125q0.09375 -0.125 0.1875 -0.21875q0.09375 -0.09375 0.3125 -0.15625q0.21875 -0.0625 0.40625 -0.125q0.1875 -0.0625 0.5625 -0.09375q0.375 -0.03125 0.625 -0.03125q0.25 0 0.78125 -0.03125q0.53125 -0.03125 0.90625 -0.09375q1.0625 -0.125 1.40625 -0.65625q0.34375 -0.53125 0.34375 -1.59375l0 -33.0625q0 -1.4375 -0.8125 -1.78125q-0.8125 -0.34375 -4.5625 -0.96875q-1.0 -0.1875 -1.0 -1.0625q0 -1.1875 0.875 -1.1875l2.1875 0q3.0 0 7.625 -0.375q4.625 -0.375 6.5625 -0.375z" fill-rule="nonzero"/><path fill="#e63946" d="m279.98346 181.9898l-1.25 -0.125q-1.1875 -0.0625 -3.28125 -0.15625q-2.09375 -0.09375 -4.15625 -0.09375q-1.3125 0 -2.65625 0.03125q-1.34375 0.03125 -2.375 0.09375q-1.03125 0.0625 -1.84375 0.125q-0.8125 0.0625 -1.3125 0.09375q-0.5 0.03125 -0.5625 0.03125q-1.25 0 -1.25 -1.625q0 -1.0 0.53125 -1.25q0.53125 -0.25 2.46875 -0.375q1.0625 -0.0625 1.6875 -0.125q1.3125 -0.125 1.71875 -0.6875q0.40625 -0.5625 0.40625 -1.6875l0 -32.4375q0 -0.625 -0.0625 -0.9375q-0.0625 -0.3125 -0.46875 -0.6875q-0.40625 -0.375 -1.15625 -0.375l-9.5625 0q-1.1875153 0 -1.6250153 0.28125q-0.43751526 0.28125 -0.81251526 1.03125q-2.625 5.1875 -2.8125 5.4375q-0.4375 0.5 -1.0625 0.5q-0.625 0 -1.03125 -0.46875q-0.40625 -0.46875 -0.40625 -1.15625l0 -0.0625q0 -0.25 1.875 -8.8125q0.1875 -1.0 1.3125 -1.0l37.31253 0q1.0625 0 1.3125 1.5q1.5625 8.125 1.5625 8.1875q0 0.5625 -0.375 1.0q-0.375 0.4375 -0.875 0.4375q-0.75 0 -1.4375 -1.25q-0.375 -0.625 -0.8125 -1.40625q-0.4375 -0.78125 -0.65625 -1.1875q-0.21875 -0.40625 -0.5 -0.9375q-0.28125 -0.53125 -0.46875 -0.75q-0.1875 -0.21875 -0.375 -0.5q-0.1875 -0.28125 -0.34375 -0.375q-0.15625 -0.09375 -0.34375 -0.21875q-0.1875 -0.125 -0.40625 -0.15625q-0.21875 -0.03125 -0.4375 -0.0625q-0.21875 -0.03125 -0.53125 -0.03125l-9.4375 0q-0.625 0 -0.96875 0.3125q-0.34375 0.3125 -0.375 0.59375q-0.03125 0.28125 -0.03125 0.84375l0 33.5q0 1.0 0.59375 1.25q0.59375 0.25 3.15625 0.4375q1.3125 0.125 2.0625 0.1875q0.6875 0.0625 0.90625 0.4375q0.21875 0.375 0.21875 1.375q0 1.25 -1.0625 1.25z" fill-rule="nonzero"/><path fill="#e63946" d="m310.77252 137.8648q2.0625 0 3.84375 1.75q1.78125 1.75 1.78125 5.375q0 2.3125 -0.75 4.03125q-0.75 1.71875 -1.5625 2.375q-0.8125 0.65625 -1.375 0.65625q-0.5 0 -0.84375 -0.375q-0.34375 -0.375 -0.34375 -0.875q0 -0.3125 1.15625 -1.625q1.15625 -1.3125 1.15625 -2.6875q0 -0.875 -0.625 -1.625q-0.625 -0.75 -2.125 -0.75q-0.1875 0 -0.59375 0.03125q-0.40625 0.03125 -0.59375 0.03125q-1.6875 0 -2.40625 -0.875q-0.71875 -0.875 -0.71875 -1.875q0 -1.375 1.09375 -2.46875q1.09375 -1.09375 2.90625 -1.09375z" fill-rule="nonzero"/><path fill="#e63946" d="m332.49908 148.6148q0 -4.375 3.25 -7.59375q3.25 -3.21875 8.1875 -3.21875q2.3125 0 4.15625 0.65625q1.84375 0.65625 2.875 1.28125q1.03125 0.625 1.21875 0.625q0.375 0 1.09375 -1.28125q0.71875 -1.28125 1.59375 -1.28125q0.4375 0 0.75 0.34375q0.3125 0.34375 0.3125 0.84375q0 0.125 -0.0625 0.8125q-0.0625 0.6875 -0.15625 1.90625q-0.09375 1.21875 -0.09375 2.59375q0 1.375 0.09375 2.5625q0.09375 1.1875 0.15625 1.84375q0.0625 0.65625 0.0625 0.78125q0 0.9375 -1.125 0.9375l-0.0625 0q-0.875 0 -1.3125 -0.65625q-0.4375 -0.65625 -1.15625 -2.21875q-0.71875 -1.5625 -1.96875 -3.0q-3.1875 -3.5625 -7.0 -3.5625q-2.625 0 -4.4375 1.75q-1.8125 1.75 -1.8125 4.25q0 3.4375 3.3125 5.8125q1.9375 1.4375 6.3125 2.5q4.375 1.0625 5.8125 1.6875q3.625 1.5625 5.84375 4.65625q2.21875 3.09375 2.21875 7.28125q0 5.75 -4.0625 9.75q-4.0625 4.0 -9.9375 4.0q-5.75 0 -9.75 -3.5q-1.0 -0.875 -1.9375 -0.875q-0.3125 0 -0.875 0.09375q-0.5625 0.09375 -0.8125 0.09375q-1.125 0 -1.125 -1.0q0 -0.1875 0.21875 -1.25q0.21875 -1.0625 0.59375 -3.5q0.375 -2.4375 0.625 -5.625q0.125 -1.375 1.4375 -1.375q1.0 0 1.21875 0.5625q0.21875 0.5625 0.53125 3.125q0.0625 0.8125 0.125 1.5625q0.0625 0.75 0.09375 1.0625q0.03125 0.3125 0.03125 0.5625q0 0.25 0.125 0.46875q0.125 0.21875 0.1875 0.34375q0.0625 0.125 0.4375 0.59375q0.375 0.46875 0.6875 0.84375q3.1875 4.25 8.25 4.25q3.8125 0 6.5625 -2.5625q2.75 -2.5625 2.75 -6.3125q0 -4.3125 -3.75 -7.0625q-2.125 -1.5625 -6.4375 -2.59375q-4.3125 -1.03125 -5.625 -1.59375q-3.75 -1.5 -5.6875 -4.28125q-1.9375 -2.78125 -1.9375 -6.09375z" fill-rule="nonzero"/><path fill="#000000" fill-opacity="0.0" d="m-1.0472442 184.91864l378.30103 0l0 33.66928l-378.30103 0z" fill-rule="evenodd"/><path fill="#e63946" d="m100.00952 201.97891q0 4.96875 2.953125 8.359375q2.953125 3.390625 7.171875 3.390625q3.15625 0 5.765625 -1.9375q2.625 -1.9375 3.609375 -5.125q0.1875 -0.5 0.53125 -0.5q0.59375 0 0.59375 0.421875q-0.796875 5.59375 -0.90625 5.84375q-0.171875 0.59375 -0.8125 0.59375l-0.03125 0l-0.984375 0q-0.421875 0 -0.625 0.078125q-0.1875 0.0625 -0.53125 0.3125q-0.328125 0.234375 -0.53125 0.34375q-3.171875 1.828125 -6.6875 1.828125q-2.484375 0 -4.875 -0.984375q-2.390625 -0.984375 -4.21875 -2.734375q-1.828125 -1.796875 -2.875 -4.21875q-1.03125 -2.4375 -1.03125 -5.0q0 -2.640625 1.078125 -5.09375q1.09375 -2.46875 2.921875 -4.21875q3.875 -3.6875 9.1875 -3.6875l0.03125 0q1.9375 0 3.5625 0.46875q1.640625 0.46875 2.53125 0.96875q0.90625 0.484375 0.96875 0.484375q0.28125 0 0.484375 -0.59375q0.21875 -0.59375 0.578125 -0.703125q0.0625 0 0.203125 -0.015625q0.140625 -0.015625 0.171875 -0.015625q0.390625 0 0.46875 0.421875l0.234375 1.828125q0.25 1.859375 0.5 3.765625q0.25 1.890625 0.25 2.03125q0 0.59375 -0.75 0.59375q-0.65625 0 -0.765625 -0.21875q-0.109375 -0.234375 -0.25 -1.46875q-0.171875 -1.328125 -0.953125 -2.34375q-1.21875 -1.546875 -3.125 -2.546875q-1.890625 -1.015625 -4.21875 -1.015625q-3.90625 0 -6.765625 2.953125q-2.859375 2.953125 -2.859375 7.734375zm33.953125 11.53125q-0.03125 0 -0.296875 0.203125q-0.265625 0.1875 -0.703125 0.453125q-0.4375 0.265625 -1.0 0.53125q-0.5625 0.265625 -1.375 0.453125q-0.8125 0.203125 -1.65625 0.203125q-2.203125 0 -3.6875 -1.375q-1.46875 -1.375 -1.796875 -3.84375q-0.09375 -1.046875 -0.09375 -2.203125q0 -0.671875 0.015625 -3.109375q0.015625 -2.453125 0.015625 -2.65625q0 -0.671875 -0.984375 -1.03125q-0.171875 -0.0625 -0.546875 -0.171875q-0.375 -0.109375 -0.484375 -0.203125q-0.09375 -0.109375 -0.09375 -0.390625l0 -0.109375q0 -0.453125 0.390625 -0.484375q3.578125 -0.21875 3.75 -0.21875q0.359375 0 0.359375 0.421875l0 7.390625q0 2.34375 0.671875 3.71875q0.484375 0.953125 1.484375 1.671875q1.0 0.71875 2.3125 0.71875q1.75 0 3.046875 -1.296875q0.078125 -0.109375 0.203125 -0.234375q0.125 -0.125 0.15625 -0.171875q0.03125 -0.046875 0.09375 -0.109375q0.078125 -0.078125 0.09375 -0.125q0.015625 -0.0625 0.046875 -0.125q0.046875 -0.078125 0.046875 -0.125q0 -0.0625 0 -0.171875l0 -8.859375q0 -0.765625 -0.703125 -0.984375q-0.171875 -0.0625 -1.6875 -0.3125q-0.53125 -0.109375 -0.53125 -0.59375q0 -0.53125 0.5 -0.59375q1.15625 -0.046875 2.078125 -0.078125q0.9375 -0.03125 1.296875 -0.046875q0.375 -0.015625 0.640625 -0.015625q0.265625 0 0.40625 0q0.53125 0 0.53125 0.703125l0 11.28125q0 0.109375 0.015625 0.15625q0.015625 0.046875 0.0625 0.109375q0.0625 0.046875 0.125 0.09375q0.078125 0.03125 0.21875 0.109375q0.140625 0.0625 0.3125 0.140625q0.171875 0.0625 0.453125 0.203125q0.28125 0.140625 0.59375 0.28125q0.328125 0.140625 0.328125 0.421875q0 0.375 -0.15625 0.515625q-0.15625 0.140625 -0.484375 0.203125q-0.3125 0.046875 -1.15625 0.34375q-0.84375 0.296875 -1.828125 0.875q-0.203125 0.140625 -0.390625 0.140625q-0.484375 0 -0.484375 -0.71875l0 -0.84375q0 -0.140625 -0.109375 -0.140625zm6.3632812 -9.90625q0 -1.6875 1.421875 -2.96875q1.421875 -1.28125 3.75 -1.28125q0.484375 0 0.890625 0.046875q0.40625 0.046875 0.625 0.09375q0.234375 0.03125 0.28125 0.03125q0.140625 0 0.421875 -0.171875q0.28125 -0.1875 0.484375 -0.1875q0.421875 0 0.5625 0.671875q0.109375 0.53125 0.28125 1.484375q0.171875 0.9375 0.296875 1.59375q0.125 0.65625 0.125 0.71875q0 0.5625 -0.84375 0.5625q-0.34375 0 -0.515625 -0.265625q-0.15625 -0.265625 -0.296875 -0.75q-0.140625 -0.5 -0.3125 -0.734375q-0.390625 -0.53125 -1.25 -0.96875q-0.859375 -0.4375 -1.703125 -0.4375q-0.953125 0 -1.625 0.53125q-0.65625 0.515625 -0.65625 1.359375q0 1.796875 2.84375 2.609375q0.359375 0.09375 1.0625 0.265625q0.703125 0.15625 1.078125 0.265625q0.390625 0.09375 0.9375 0.3125q0.546875 0.203125 0.96875 0.53125q0.421875 0.3125 0.8125 0.765625q1.078125 1.265625 1.078125 2.84375q0 1.90625 -1.5 3.390625q-1.484375 1.46875 -3.984375 1.46875q-1.359375 0 -2.796875 -0.46875q-1.421875 -0.453125 -2.15625 -1.328125q-0.421875 -0.453125 -0.421875 -1.234375q0 -0.5625 -0.015625 -1.265625q-0.015625 -0.703125 -0.015625 -0.875q0 -0.703125 0.125 -0.90625q0.125 -0.21875 0.5 -0.21875q0.390625 0 0.5 0.3125q0.109375 0.3125 0.140625 0.9375q0.03125 0.609375 0.203125 1.0q0.328125 0.703125 1.5 1.40625q1.171875 0.703125 2.578125 0.703125q1.234375 0 2.078125 -0.671875q0.84375 -0.671875 0.84375 -1.71875q0 -0.671875 -0.296875 -1.171875q-0.296875 -0.515625 -0.9375 -0.84375q-0.625 -0.34375 -1.015625 -0.5q-0.390625 -0.15625 -1.234375 -0.375l-0.84375 -0.171875q-3.96875 -1.15625 -3.96875 -4.390625zm12.4765625 -2.046875q-0.734375 0 -0.734375 -0.453125q0 -0.203125 0.5 -0.640625q0.515625 -0.453125 1.46875 -1.484375q0.953125 -1.03125 1.796875 -2.4375q0.390625 -0.671875 0.703125 -0.671875q0.484375 0 0.484375 0.59375q0 0.25 -0.015625 1.265625q-0.015625 1.015625 -0.015625 1.265625q0 0.703125 0.703125 0.703125l3.234375 0q0.078125 0 0.171875 0.015625q0.109375 0.015625 0.140625 0.015625q0.921875 0 0.921875 0.671875q0 0.671875 -0.3125 1.0625q-0.1875 0.171875 -0.640625 0.171875l-4.21875 0q-0.34375 0 -0.34375 0.34375q0 2.921875 -0.03125 4.859375q-0.015625 1.9375 -0.03125 2.609375q-0.015625 0.65625 -0.015625 0.9375q0 2.671875 1.859375 2.671875q0.75 0 1.546875 -0.546875q0.8125 -0.546875 1.421875 -1.078125q0.625 -0.546875 0.9375 -0.546875q0.28125 0 0.46875 0.21875q0.203125 0.203125 0.203125 0.4375q0 0.21875 -0.25 0.609375q-2.84375 3.234375 -5.03125 3.234375q-1.296875 0 -2.375 -1.03125q-1.0625 -1.046875 -1.234375 -3.328125q-0.046875 -0.390625 -0.046875 -1.171875q0 -0.875 0.0625 -4.265625q0.078125 -3.390625 0.078125 -3.703125q0 -0.328125 -0.234375 -0.328125l-1.171875 0zm11.296875 5.8125q0 -3.625 2.296875 -5.90625q2.296875 -2.296875 5.46875 -2.296875q3.234375 0 5.375 2.3125q2.140625 2.296875 2.140625 5.890625q0 3.6875 -2.234375 5.859375q-2.21875 2.15625 -5.421875 2.15625q-3.375 0 -5.5 -2.3125q-2.125 -2.328125 -2.125 -5.703125zm4.140625 4.4375q1.375 1.8125 3.578125 1.8125q2.21875 0 3.65625 -1.8125q1.453125 -1.8125 1.453125 -4.296875q0 -2.8125 -1.609375 -4.734375q-1.59375 -1.921875 -3.703125 -1.921875q-1.75 0 -3.25 1.546875q-1.5 1.546875 -1.5 4.78125q0 2.8125 1.375 4.625zm16.976562 -10.703125q0.046875 0 0.5625 -0.40625q0.53125 -0.40625 1.453125 -0.78125q0.9375 -0.390625 1.890625 -0.390625q0.5 0 0.953125 0.109375q0.453125 0.09375 0.84375 0.28125q0.390625 0.171875 0.71875 0.390625q0.328125 0.203125 0.578125 0.421875q0.25 0.203125 0.421875 0.359375q0.171875 0.15625 0.28125 0.265625l0.109375 0.140625q0.03125 0.03125 0.140625 0.03125q0.109375 0 0.171875 -0.03125q0.078125 -0.03125 0.15625 -0.125q0.09375 -0.09375 0.40625 -0.296875q0.3125 -0.21875 0.78125 -0.5q1.78125 -1.046875 3.46875 -1.046875q1.59375 0 2.921875 0.9375q1.34375 0.921875 1.9375 2.96875q0.421875 1.5 0.421875 4.21875l0 4.5625q0 0.25 0.015625 0.421875q0.015625 0.171875 0.09375 0.296875q0.09375 0.125 0.125 0.203125q0.046875 0.0625 0.234375 0.140625q0.203125 0.0625 0.28125 0.078125q0.09375 0.015625 0.4375 0.09375q0.359375 0.0625 0.53125 0.109375q0.5 0.0625 0.5 0.65625q0 0.71875 -0.53125 0.71875q-0.078125 0 -0.46875 -0.0625q-0.375 -0.046875 -1.078125 -0.109375q-0.703125 -0.046875 -1.484375 -0.046875q-0.796875 0 -1.484375 0.046875q-0.6875 0.0625 -1.09375 0.109375q-0.40625 0.0625 -0.46875 0.0625q-0.21875 0 -0.421875 -0.15625q-0.1875 -0.140625 -0.1875 -0.453125q0 -0.484375 0.234375 -0.59375q0.234375 -0.109375 1.453125 -0.359375q0.75 -0.09375 0.75 -0.984375l0 -4.984375q0 -3.9375 -1.484375 -5.234375q-1.015625 -0.8125 -2.25 -0.8125q-1.09375 0 -2.1875 0.59375q-1.078125 0.59375 -1.078125 1.0625l0.03125 0.09375q0 0.109375 0.03125 0.328125q0.046875 0.203125 0.078125 0.484375q0.03125 0.28125 0.046875 0.6875q0.015625 0.40625 0.015625 0.828125l0 6.921875q0 0.03125 -0.015625 0.140625q-0.015625 0.109375 -0.015625 0.171875l0 0.046875q0 0.59375 1.234375 0.703125q0.3125 0.03125 0.53125 0.0625q0.703125 0.109375 0.703125 0.703125q0 0.75 -0.46875 0.75q-0.03125 0 -0.234375 -0.03125q-0.1875 -0.015625 -0.5 -0.046875q-0.3125 -0.03125 -0.703125 -0.078125q-0.390625 -0.03125 -0.921875 -0.046875q-0.515625 -0.015625 -1.015625 -0.015625q-0.484375 0 -1.015625 0.015625q-0.53125 0.015625 -0.921875 0.046875q-0.375 0.046875 -0.703125 0.078125q-0.3125 0.03125 -0.484375 0.078125l-0.203125 0q-0.5 0 -0.5 -0.78125q0 -0.5 1.34375 -0.671875q0.375 -0.0625 0.59375 -0.109375q0.59375 -0.09375 0.765625 -0.375q0.1875 -0.28125 0.1875 -0.984375l0 -6.65625q0 -2.25 -1.171875 -3.125q-1.15625 -0.875 -2.53125 -0.875q-1.015625 0 -1.75 0.484375q-0.734375 0.46875 -0.984375 0.921875q-0.140625 0.34375 -0.140625 0.953125l0 8.640625q0 0.171875 0.015625 0.296875q0.015625 0.125 0.03125 0.21875q0.015625 0.078125 0.0625 0.171875q0.0625 0.09375 0.09375 0.140625q0.046875 0.046875 0.15625 0.09375q0.125 0.03125 0.1875 0.0625q0.078125 0.03125 0.265625 0.078125q0.203125 0.03125 0.3125 0.046875q0.109375 0.015625 0.359375 0.0625q0.265625 0.03125 0.453125 0.0625q0.484375 0.0625 0.484375 0.765625q0 0.578125 -0.453125 0.578125l-0.453125 -0.078125q-0.421875 -0.03125 -1.15625 -0.09375q-0.71875 -0.046875 -1.453125 -0.046875q-0.703125 0 -1.296875 0.03125q-0.59375 0.046875 -0.9375 0.078125q-0.328125 0.03125 -0.40625 0.03125q-0.484375 0 -0.484375 -0.703125q0 -0.390625 0.296875 -0.53125q0.296875 -0.140625 0.640625 -0.140625q0.359375 0 0.6875 -0.203125q0.34375 -0.21875 0.375 -0.703125l0 -8.9375q0 -0.453125 -0.15625 -0.65625q-0.15625 -0.21875 -0.890625 -0.78125q-0.25 -0.171875 -0.390625 -0.28125q-0.3125 -0.21875 -0.3125 -0.421875q0 -0.171875 0.171875 -0.328125q0.171875 -0.171875 1.046875 -0.6875q0.953125 -0.609375 1.6875 -1.0625q0.609375 -0.3125 0.671875 -0.3125q0.3125 0 0.3125 0.421875l0 1.375q0 0.203125 0.140625 0.203125zm31.078125 -4.953125q0 -2.46875 1.828125 -4.265625q1.828125 -1.8125 4.609375 -1.8125q1.296875 0 2.328125 0.375q1.046875 0.359375 1.625 0.71875q0.578125 0.34375 0.6875 0.34375q0.21875 0 0.609375 -0.71875q0.40625 -0.71875 0.90625 -0.71875q0.25 0 0.421875 0.1875q0.171875 0.1875 0.171875 0.46875q0 0.078125 -0.03125 0.46875q-0.03125 0.375 -0.09375 1.0625q-0.046875 0.6875 -0.046875 1.46875q0 0.765625 0.046875 1.4375q0.0625 0.671875 0.09375 1.046875q0.03125 0.359375 0.03125 0.421875q0 0.53125 -0.625 0.53125l-0.046875 0q-0.484375 0 -0.734375 -0.359375q-0.25 -0.375 -0.65625 -1.25q-0.390625 -0.890625 -1.09375 -1.6875q-1.796875 -2.015625 -3.9375 -2.015625q-1.484375 0 -2.5 0.984375q-1.015625 0.984375 -1.015625 2.390625q0 1.9375 1.859375 3.28125q1.09375 0.796875 3.546875 1.40625q2.46875 0.59375 3.265625 0.9375q2.046875 0.890625 3.296875 2.625q1.25 1.734375 1.25 4.09375q0 3.234375 -2.296875 5.484375q-2.28125 2.25 -5.578125 2.25q-3.234375 0 -5.484375 -1.96875q-0.5625 -0.484375 -1.09375 -0.484375q-0.171875 0 -0.5 0.046875q-0.3125 0.046875 -0.453125 0.046875q-0.625 0 -0.625 -0.5625q0 -0.09375 0.109375 -0.6875q0.125 -0.609375 0.328125 -1.96875q0.21875 -1.375 0.359375 -3.171875q0.078125 -0.78125 0.8125 -0.78125q0.5625 0 0.6875 0.328125q0.125 0.3125 0.296875 1.75q0.03125 0.453125 0.0625 0.875q0.046875 0.421875 0.0625 0.609375q0.015625 0.171875 0.015625 0.3125q0 0.140625 0.0625 0.265625q0.078125 0.125 0.109375 0.203125q0.046875 0.0625 0.25 0.328125q0.21875 0.25 0.390625 0.46875q1.796875 2.390625 4.640625 2.390625q2.140625 0 3.6875 -1.4375q1.546875 -1.453125 1.546875 -3.5625q0 -2.421875 -2.109375 -3.96875q-1.1875 -0.875 -3.625 -1.453125q-2.421875 -0.578125 -3.15625 -0.90625q-2.109375 -0.84375 -3.203125 -2.40625q-1.09375 -1.5625 -1.09375 -3.421875zm19.902344 14.203125q0 -1.828125 0 -3.40625q0 -1.59375 0.015625 -2.484375q0.015625 -0.890625 0.015625 -1.078125q0 -0.375 -0.265625 -0.53125q-0.25 -0.171875 -2.15625 -0.9375q-0.453125 -0.171875 -0.453125 -0.453125q0 -0.109375 0.046875 -0.21875q0.0625 -0.109375 0.171875 -0.171875q0.125 -0.078125 0.234375 -0.125q0.109375 -0.046875 0.28125 -0.109375q0.171875 -0.078125 0.25 -0.125q3.9375 -1.890625 3.96875 -1.890625l0.03125 0q0.5 0 0.5 0.59375l-0.03125 1.15625q-0.078125 1.171875 -0.140625 3.125q-0.046875 1.9375 -0.046875 3.875l0 1.203125q0 3.328125 0.109375 3.9375q0.109375 0.59375 0.703125 0.65625q1.0625 0.140625 1.34375 0.25q0.28125 0.109375 0.28125 0.53125q0 0.78125 -0.421875 0.78125q-0.046875 0 -0.21875 -0.03125q-0.171875 -0.015625 -0.5 -0.046875q-0.3125 -0.03125 -0.703125 -0.078125q-0.375 -0.03125 -0.890625 -0.046875q-0.5 -0.015625 -1.0 -0.015625q-0.484375 0 -1.015625 0.015625q-0.53125 0.015625 -0.90625 0.046875q-0.359375 0.046875 -0.6875 0.078125q-0.3125 0.03125 -0.484375 0.046875q-0.171875 0.03125 -0.203125 0.03125q-0.5625 0 -0.5625 -0.59375q0 -0.609375 0.21875 -0.71875q0.234375 -0.109375 1.5625 -0.28125q0.640625 -0.109375 0.796875 -0.40625q0.15625 -0.296875 0.15625 -0.890625l0 -1.6875zm0.359375 -17.890625q0 -0.703125 0.515625 -1.1875q0.53125 -0.5 1.234375 -0.5q0.703125 0 1.203125 0.5q0.515625 0.484375 0.515625 1.140625q0 0.75 -0.515625 1.25q-0.5 0.484375 -1.234375 0.484375q-0.734375 0 -1.234375 -0.46875q-0.484375 -0.484375 -0.484375 -1.21875zm6.421875 9.09375q-0.734375 0 -0.734375 -0.453125q0 -0.203125 0.5 -0.640625q0.515625 -0.453125 1.46875 -1.484375q0.953125 -1.03125 1.796875 -2.4375q0.390625 -0.671875 0.703125 -0.671875q0.484375 0 0.484375 0.59375q0 0.25 -0.015625 1.265625q-0.015625 1.015625 -0.015625 1.265625q0 0.703125 0.703125 0.703125l3.234375 0q0.078125 0 0.171875 0.015625q0.109375 0.015625 0.140625 0.015625q0.921875 0 0.921875 0.671875q0 0.671875 -0.3125 1.0625q-0.1875 0.171875 -0.640625 0.171875l-4.21875 0q-0.34375 0 -0.34375 0.34375q0 2.921875 -0.03125 4.859375q-0.015625 1.9375 -0.03125 2.609375q-0.015625 0.65625 -0.015625 0.9375q0 2.671875 1.859375 2.671875q0.75 0 1.546875 -0.546875q0.8125 -0.546875 1.421875 -1.078125q0.625 -0.546875 0.9375 -0.546875q0.28125 0 0.46875 0.21875q0.203125 0.203125 0.203125 0.4375q0 0.21875 -0.25 0.609375q-2.84375 3.234375 -5.03125 3.234375q-1.296875 0 -2.375 -1.03125q-1.0625 -1.046875 -1.234375 -3.328125q-0.046875 -0.390625 -0.046875 -1.171875q0 -0.875 0.0625 -4.265625q0.078125 -3.390625 0.078125 -3.703125q0 -0.328125 -0.234375 -0.328125l-1.171875 0zm11.328125 5.734375q0 -3.65625 1.921875 -5.859375q1.9375 -2.21875 4.71875 -2.21875q1.796875 0 3.4375 0.984375q1.65625 0.984375 2.75 2.453125q0.28125 0.359375 0.28125 0.78125l0 0.0625q0 0.3125 -0.171875 0.5625q-0.171875 0.25 -0.5625 0.453125q-0.390625 0.1875 -0.671875 0.296875q-0.28125 0.09375 -0.828125 0.28125q-0.546875 0.171875 -0.6875 0.203125q-7.34375 2.53125 -7.515625 2.640625q-0.140625 0.0625 -0.140625 0.203125q0 0.21875 0.09375 0.71875q0.109375 0.484375 0.484375 1.296875q0.375 0.796875 0.90625 1.484375q0.546875 0.6875 1.5625 1.203125q1.03125 0.5 2.296875 0.5q2.453125 0 4.28125 -1.75q0.5 -0.5 0.8125 -0.5q0.59375 0 0.59375 0.53125q0 0.203125 -0.28125 0.5625q-1.125 1.46875 -2.8125 2.34375q-1.6875 0.859375 -3.546875 0.859375q-1.1875 0 -2.34375 -0.421875q-1.140625 -0.421875 -2.21875 -1.296875q-1.0625 -0.890625 -1.71875 -2.53125q-0.640625 -1.65625 -0.640625 -3.84375zm9.625 -3.71875q0 -0.46875 -1.234375 -1.421875q-1.21875 -0.96875 -2.5625 -0.96875q-1.578125 0 -2.515625 1.375q-0.921875 1.359375 -0.921875 3.75q0 0.28125 0.171875 0.28125q0.078125 0 3.359375 -1.28125q3.28125 -1.28125 3.390625 -1.3125q0.3125 -0.1875 0.3125 -0.421875zm5.3828125 0.03125q0 -1.6875 1.421875 -2.96875q1.421875 -1.28125 3.75 -1.28125q0.484375 0 0.890625 0.046875q0.40625 0.046875 0.625 0.09375q0.234375 0.03125 0.28125 0.03125q0.140625 0 0.421875 -0.171875q0.28125 -0.1875 0.484375 -0.1875q0.421875 0 0.5625 0.671875q0.109375 0.53125 0.28125 1.484375q0.171875 0.9375 0.296875 1.59375q0.125 0.65625 0.125 0.71875q0 0.5625 -0.84375 0.5625q-0.34375 0 -0.515625 -0.265625q-0.15625 -0.265625 -0.296875 -0.75q-0.140625 -0.5 -0.3125 -0.734375q-0.390625 -0.53125 -1.25 -0.96875q-0.859375 -0.4375 -1.703125 -0.4375q-0.953125 0 -1.625 0.53125q-0.65625 0.515625 -0.65625 1.359375q0 1.796875 2.84375 2.609375q0.359375 0.09375 1.0625 0.265625q0.703125 0.15625 1.078125 0.265625q0.390625 0.09375 0.9375 0.3125q0.546875 0.203125 0.96875 0.53125q0.421875 0.3125 0.8125 0.765625q1.078125 1.265625 1.078125 2.84375q0 1.90625 -1.5 3.390625q-1.484375 1.46875 -3.984375 1.46875q-1.359375 0 -2.796875 -0.46875q-1.421875 -0.453125 -2.15625 -1.328125q-0.421875 -0.453125 -0.421875 -1.234375q0 -0.5625 -0.015625 -1.265625q-0.015625 -0.703125 -0.015625 -0.875q0 -0.703125 0.125 -0.90625q0.125 -0.21875 0.5 -0.21875q0.390625 0 0.5 0.3125q0.109375 0.3125 0.140625 0.9375q0.03125 0.609375 0.203125 1.0q0.328125 0.703125 1.5 1.40625q1.171875 0.703125 2.578125 0.703125q1.234375 0 2.078125 -0.671875q0.84375 -0.671875 0.84375 -1.71875q0 -0.671875 -0.296875 -1.171875q-0.296875 -0.515625 -0.9375 -0.84375q-0.625 -0.34375 -1.015625 -0.5q-0.390625 -0.15625 -1.234375 -0.375l-0.84375 -0.171875q-3.96875 -1.15625 -3.96875 -4.390625z" fill-rule="nonzero"/></g></svg>