<svg version="1.1" viewBox="0.0 0.0 100.0 103.42" fill="none" stroke="none" stroke-linecap="square" stroke-miterlimit="10" xmlns:xlink="http://www.w3.org/1999/xlink" xmlns="http://www.w3.org/2000/svg"><clipPath id="p.0"><path d="m0 0l100.0 0l0 103.419945l-100.0 0l0 -103.419945z" clip-rule="nonzero"/></clipPath><g clip-path="url(#p.0)"><path fill="#000000" fill-opacity="0.0" d="m0 0l100.0 0l0 103.419945l-100.0 0z" fill-rule="evenodd"/><path fill="#fff9eb" d="m81.76247 102.244095l0 0c-35.0853 0 -63.527557 -22.62548 -63.527557 -50.535435c0 -27.909948 28.442257 -50.53543 63.527557 -50.53543l0 0c-21.945213 10.866141 -35.28638 29.972712 -35.28638 50.53543c0 20.562725 13.341167 39.669292 35.28638 50.535435z" fill-rule="evenodd"/><path stroke="#fff9eb" stroke-width="1.0" stroke-linejoin="round" stroke-linecap="butt" d="m81.76247 102.244095l0 0c-35.0853 0 -63.527557 -22.62548 -63.527557 -50.535435c0 -27.909948 28.442257 -50.53543 63.527557 -50.53543l0 0c-21.945213 10.866141 -35.28638 29.972712 -35.28638 50.53543c0 20.562725 13.341167 39.669292 35.28638 50.535435z" fill-rule="evenodd"/></g></svg>