<svg version="1.1" viewBox="0.0 0.0 100.0 100.0" fill="none" stroke="none" stroke-linecap="square" stroke-miterlimit="10" xmlns:xlink="http://www.w3.org/1999/xlink" xmlns="http://www.w3.org/2000/svg"><clipPath id="p.0"><path d="m0 0l100.0 0l0 100.0l-100.0 0l0 -100.0z" clip-rule="nonzero"/></clipPath><g clip-path="url(#p.0)"><path fill="#000000" fill-opacity="0.0" d="m0 0l100.0 0l0 100.0l-100.0 0z" fill-rule="evenodd"/><path fill="#fff9eb" d="m47.127296 67.23491l20.327782 -4.334511l4.365135 -20.185177l4.3651276 20.185177l20.327782 4.334511l-20.327782 4.334511l-4.3651276 20.185173l-4.365135 -20.185173z" fill-rule="evenodd"/><path stroke="#fff9eb" stroke-width="1.0" stroke-linejoin="round" stroke-linecap="butt" d="m47.127296 67.23491l20.327782 -4.334511l4.365135 -20.185177l4.3651276 20.185177l20.327782 4.334511l-20.327782 4.334511l-4.3651276 20.185173l-4.365135 -20.185173z" fill-rule="evenodd"/><path fill="#fff9eb" d="m37.50525 24.982939l12.108513 -3.134653l2.6001472 -14.59763l2.600151 14.59763l12.108509 3.134653l-12.108509 3.134655l-2.600151 14.597628l-2.6001472 -14.597628z" fill-rule="evenodd"/><path stroke="#fff9eb" stroke-width="1.0" stroke-linejoin="round" stroke-linecap="butt" d="m37.50525 24.982939l12.108513 -3.134653l2.6001472 -14.59763l2.600151 14.59763l12.108509 3.134653l-12.108509 3.134655l-2.600151 14.597628l-2.6001472 -14.597628z" fill-rule="evenodd"/><path fill="#fff9eb" d="m3.484252 48.014435l20.327782 -4.334507l4.3651314 -20.185177l4.3651314 20.185177l20.327782 4.334507l-20.327782 4.334511l-4.3651314 20.185173l-4.3651314 -20.185173z" fill-rule="evenodd"/><path stroke="#fff9eb" stroke-width="1.0" stroke-linejoin="round" stroke-linecap="butt" d="m3.484252 48.014435l20.327782 -4.334507l4.3651314 -20.185177l4.3651314 20.185177l20.327782 4.334507l-20.327782 4.334511l-4.3651314 20.185173l-4.3651314 -20.185173z" fill-rule="evenodd"/></g></svg>